<?xml version="1.0"?>
<svg xmlns="http://www.w3.org/2000/svg" xmlns:xlink="http://www.w3.org/1999/xlink" version="1.1" id="Layer_1" x="0px" y="0px" viewBox="0 0 512 512" style="enable-background:new 0 0 512 512;" xml:space="preserve" width="512px" height="512px"><g><g>
	<g>
		<path d="M512,409.861V30.041H0v379.82h168.229v40.751h-56.424v31.347h288.392v-31.347h-56.424v-40.751H512z M31.347,61.388    h449.306v257.045H31.347V61.388z M312.424,450.612H199.575v-40.751h112.849V450.612z M31.347,378.514V349.78h449.306v28.735    H31.347z" data-original="#000000" class="active-path" data-old_color="#5eb1bf" fill="#5eb1bf"/>
	</g>
</g><g>
	<g>
		<path d="M179.521,200.721c12.19-9.471,20.055-24.255,20.055-40.851c0-28.519-23.203-51.722-51.722-51.722    c-28.519,0-51.722,23.203-51.722,51.722c0,16.596,7.865,31.38,20.055,40.851C97.042,211.73,84.114,232.377,84.114,256v15.673    h127.478V256C211.592,232.377,198.664,211.73,179.521,200.721z M147.853,139.494c11.235,0,20.375,9.141,20.375,20.375    s-9.141,20.376-20.375,20.376s-20.376-9.141-20.376-20.376S136.618,139.494,147.853,139.494z M119.511,240.327    c5.531-9.962,16.162-16.718,28.342-16.718c12.179,0,22.81,6.756,28.341,16.718H119.511z" data-original="#000000" class="active-path" data-old_color="#5eb1bf" fill="#5eb1bf"/>
	</g>
</g><g>
	<g>
		<rect x="256" y="108.147" width="36.049" height="31.347" data-original="#000000" class="active-path" data-old_color="#5eb1bf" fill="#5eb1bf"/>
	</g>
</g><g>
	<g>
		<rect x="316.082" y="108.147" width="108.147" height="31.347" data-original="#000000" class="active-path" data-old_color="#5eb1bf" fill="#5eb1bf"/>
	</g>
</g><g>
	<g>
		<rect x="256" y="174.237" width="36.049" height="31.347" data-original="#000000" class="active-path" data-old_color="#5eb1bf" fill="#5eb1bf"/>
	</g>
</g><g>
	<g>
		<rect x="316.082" y="174.237" width="108.147" height="31.347" data-original="#000000" class="active-path" data-old_color="#5eb1bf" fill="#5eb1bf"/>
	</g>
</g><g>
	<g>
		<rect x="256" y="240.327" width="36.049" height="31.347" data-original="#000000" class="active-path" data-old_color="#5eb1bf" fill="#5eb1bf"/>
	</g>
</g><g>
	<g>
		<rect x="316.082" y="240.327" width="108.147" height="31.347" data-original="#000000" class="active-path" data-old_color="#5eb1bf" fill="#5eb1bf"/>
	</g>
</g></g> </svg>
