<?xml version="1.0"?>
<svg xmlns="http://www.w3.org/2000/svg" xmlns:xlink="http://www.w3.org/1999/xlink" version="1.1" id="Capa_1" x="0px" y="0px" viewBox="0 0 512 512" style="enable-background:new 0 0 512 512;" xml:space="preserve" width="512px" height="512px"><g><g>
	<g>
		<path d="M504.5,252.387h-55.584l-29.659-48.936c-1.359-2.242-3.791-3.612-6.414-3.612H263.5v-48.562    c34.084-3.747,60.692-32.705,60.692-67.77c0-37.602-30.591-68.192-68.192-68.192s-68.191,30.591-68.191,68.192    c0,17.135,6.38,33.515,17.965,46.124c2.802,3.05,7.546,3.251,10.597,0.448c3.05-2.802,3.251-7.547,0.448-10.597    c-9.034-9.834-14.01-22.61-14.01-35.976c0-29.33,23.861-53.192,53.191-53.192s53.192,23.862,53.192,53.192    c0,29.33-23.862,53.192-53.192,53.192c-5.374,0-10.672-0.796-15.745-2.367c-3.955-1.225-8.157,0.99-9.383,4.947    c-1.225,3.957,0.99,8.157,4.947,9.383c4.131,1.278,8.374,2.154,12.681,2.625v48.552H99.157c-2.623,0-5.055,1.37-6.414,3.612    l-29.659,48.936H7.5c-4.143,0-7.5,3.357-7.5,7.5v229.297c0,4.143,3.357,7.5,7.5,7.5h119.617c4.143,0,7.5-3.357,7.5-7.5V319.999    c0-4.143-3.357-7.5-7.5-7.5s-7.5,3.357-7.5,7.5v161.685H15V267.387h104.617v21.956c0,4.143,3.357,7.5,7.5,7.5s7.5-3.357,7.5-7.5    v-29.456c0-4.143-3.357-7.5-7.5-7.5H80.625l22.757-37.548H248.5v37.548h-52.309c-4.143,0-7.5,3.357-7.5,7.5v229.297    c0,4.143,3.357,7.5,7.5,7.5h119.617c4.143,0,7.5-3.357,7.5-7.5v-36.852c0-4.143-3.357-7.5-7.5-7.5s-7.5,3.357-7.5,7.5v29.352    H203.691V267.387h104.617v154.661c0,4.143,3.357,7.5,7.5,7.5s7.5-3.357,7.5-7.5V259.887c0-4.143-3.357-7.5-7.5-7.5H263.5v-37.548    h145.118l22.757,37.548h-46.493c-4.143,0-7.5,3.357-7.5,7.5v229.297c0,4.143,3.357,7.5,7.5,7.5H504.5c4.143,0,7.5-3.357,7.5-7.5    V259.887C512,255.744,508.643,252.387,504.5,252.387z M497,481.684H392.383V267.387h52.3c0.005,0,0.01,0.001,0.015,0.001    s0.01-0.001,0.015-0.001H497V481.684z" data-original="#000000" class="active-path" data-old_color="#5eb1bf" fill="#5eb1bf"/>
	</g>
</g><g>
	<g>
		<path d="M52.171,305.245H37.308c-4.143,0-7.5,3.357-7.5,7.5s3.357,7.5,7.5,7.5h14.863c4.143,0,7.5-3.357,7.5-7.5    S56.314,305.245,52.171,305.245z" data-original="#000000" class="active-path" data-old_color="#5eb1bf" fill="#5eb1bf"/>
	</g>
</g><g>
	<g>
		<path d="M99.943,340.278H37.308c-4.143,0-7.5,3.357-7.5,7.5s3.357,7.5,7.5,7.5h62.636c4.143,0,7.5-3.357,7.5-7.5    S104.086,340.278,99.943,340.278z" data-original="#000000" class="active-path" data-old_color="#5eb1bf" fill="#5eb1bf"/>
	</g>
</g><g>
	<g>
		<path d="M99.943,367.035H37.308c-4.143,0-7.5,3.357-7.5,7.5s3.357,7.5,7.5,7.5h62.636c4.143,0,7.5-3.357,7.5-7.5    S104.086,367.035,99.943,367.035z" data-original="#000000" class="active-path" data-old_color="#5eb1bf" fill="#5eb1bf"/>
	</g>
</g><g>
	<g>
		<path d="M99.943,393.791H37.308c-4.143,0-7.5,3.357-7.5,7.5s3.357,7.5,7.5,7.5h62.636c4.143,0,7.5-3.357,7.5-7.5    S104.086,393.791,99.943,393.791z" data-original="#000000" class="active-path" data-old_color="#5eb1bf" fill="#5eb1bf"/>
	</g>
</g><g>
	<g>
		<path d="M99.943,420.548H37.308c-4.143,0-7.5,3.357-7.5,7.5s3.357,7.5,7.5,7.5h62.636c4.143,0,7.5-3.357,7.5-7.5    S104.086,420.548,99.943,420.548z" data-original="#000000" class="active-path" data-old_color="#5eb1bf" fill="#5eb1bf"/>
	</g>
</g><g>
	<g>
		<path d="M239.545,305.245h-14.862c-4.143,0-7.5,3.357-7.5,7.5s3.357,7.5,7.5,7.5h14.862c4.143,0,7.5-3.357,7.5-7.5    S243.688,305.245,239.545,305.245z" data-original="#000000" class="active-path" data-old_color="#5eb1bf" fill="#5eb1bf"/>
	</g>
</g><g>
	<g>
		<path d="M287.317,340.278h-62.635c-4.143,0-7.5,3.357-7.5,7.5s3.357,7.5,7.5,7.5h62.635c4.143,0,7.5-3.357,7.5-7.5    S291.46,340.278,287.317,340.278z" data-original="#000000" class="active-path" data-old_color="#5eb1bf" fill="#5eb1bf"/>
	</g>
</g><g>
	<g>
		<path d="M287.317,367.035h-62.635c-4.143,0-7.5,3.357-7.5,7.5s3.357,7.5,7.5,7.5h62.635c4.143,0,7.5-3.357,7.5-7.5    S291.46,367.035,287.317,367.035z" data-original="#000000" class="active-path" data-old_color="#5eb1bf" fill="#5eb1bf"/>
	</g>
</g><g>
	<g>
		<path d="M287.317,393.791h-62.635c-4.143,0-7.5,3.357-7.5,7.5s3.357,7.5,7.5,7.5h62.635c4.143,0,7.5-3.357,7.5-7.5    S291.46,393.791,287.317,393.791z" data-original="#000000" class="active-path" data-old_color="#5eb1bf" fill="#5eb1bf"/>
	</g>
</g><g>
	<g>
		<path d="M287.317,420.548h-62.635c-4.143,0-7.5,3.357-7.5,7.5s3.357,7.5,7.5,7.5h62.635c4.143,0,7.5-3.357,7.5-7.5    S291.46,420.548,287.317,420.548z" data-original="#000000" class="active-path" data-old_color="#5eb1bf" fill="#5eb1bf"/>
	</g>
</g><g>
	<g>
		<path d="M426.92,305.245h-14.863c-4.143,0-7.5,3.357-7.5,7.5s3.357,7.5,7.5,7.5h14.863c4.143,0,7.5-3.357,7.5-7.5    S431.063,305.245,426.92,305.245z" data-original="#000000" class="active-path" data-old_color="#5eb1bf" fill="#5eb1bf"/>
	</g>
</g><g>
	<g>
		<path d="M474.693,340.278h-62.636c-4.143,0-7.5,3.357-7.5,7.5s3.357,7.5,7.5,7.5h62.636c4.143,0,7.5-3.357,7.5-7.5    S478.836,340.278,474.693,340.278z" data-original="#000000" class="active-path" data-old_color="#5eb1bf" fill="#5eb1bf"/>
	</g>
</g><g>
	<g>
		<path d="M474.692,367.035h-62.636c-4.143,0-7.5,3.357-7.5,7.5s3.357,7.5,7.5,7.5h62.636c4.143,0,7.5-3.357,7.5-7.5    S478.835,367.035,474.692,367.035z" data-original="#000000" class="active-path" data-old_color="#5eb1bf" fill="#5eb1bf"/>
	</g>
</g><g>
	<g>
		<path d="M474.692,393.791h-62.636c-4.143,0-7.5,3.357-7.5,7.5s3.357,7.5,7.5,7.5h62.636c4.143,0,7.5-3.357,7.5-7.5    S478.835,393.791,474.692,393.791z" data-original="#000000" class="active-path" data-old_color="#5eb1bf" fill="#5eb1bf"/>
	</g>
</g><g>
	<g>
		<path d="M474.692,420.548h-62.636c-4.143,0-7.5,3.357-7.5,7.5s3.357,7.5,7.5,7.5h62.636c4.143,0,7.5-3.357,7.5-7.5    S478.835,420.548,474.692,420.548z" data-original="#000000" class="active-path" data-old_color="#5eb1bf" fill="#5eb1bf"/>
	</g>
</g></g> </svg>
